<svg width="102" height="115" viewBox="0 0 102 115" fill="none" xmlns="http://www.w3.org/2000/svg">
<g id="Group">
<g id="Group_2">
<path id="Vector" d="M73.3063 93.3076C71.3362 100.72 61.1381 103.182 54.5312 103.361C51.116 103.455 47.1906 103.114 44.3109 101.114C43.2203 100.364 42.3568 99.3182 42.0349 98.0098C41.6697 96.495 41.9783 94.2264 43.0125 93.0418C44.25 91.6305 46.3991 92.9475 47.6678 93.654C49.3633 94.5941 51.0277 95.7341 52.888 96.3098C56.7229 97.491 61.3143 94.9206 62.2904 91.0056C63.2488 87.1418 60.3459 83.3041 56.6804 82.3251C52.7009 81.2568 48.2777 82.2667 44.3326 83.0586C40.531 83.8236 35.8022 85.4653 31.9928 84.0727C29.1986 83.0403 27.1478 80.7228 25.9145 78.0653C25.7026 77.5994 24.6093 75.6702 25.0344 75.1083C25.0634 75.08 26.058 75.2513 26.3321 75.3172C29.8321 76.2486 33.2338 78.6497 36.9714 78.4277C40.474 78.2203 43.7983 75.2697 42.2903 71.6649C40.7488 67.991 37.1025 66.377 33.5879 65.2394C31.4426 64.5461 28.7888 63.7443 27.7332 61.5408C27.1246 60.2579 26.8138 56.6548 28.5814 55.9246C30.4181 55.1609 32.5234 57.7079 34.445 57.5002C37.8979 57.132 36.1743 51.0296 34.8872 49.4932C33.2948 47.6214 30.8377 46.6672 28.5911 45.824C25.9796 44.8452 23.2989 43.9 20.9113 42.4143C18.3246 40.8119 16.5598 38.5262 15.8749 35.5314C15.3041 33.0357 15.7144 30.4192 16.4889 27.9955C17.2044 25.7143 18.3882 23.0777 20.5574 21.8255C22.5304 20.697 24.4079 21.2785 25.4268 23.2012C26.8434 25.8551 27.0814 30.7163 30.442 31.8007C31.994 32.2986 34.0001 31.737 35.086 30.5415C36.2823 29.2213 36.6038 27.302 36.8652 25.6109C37.202 23.3713 37.2878 21.0545 37.9733 18.8874C38.7181 16.5493 40.5283 15.1443 42.7115 14.1555C47.124 12.1554 53.1144 12.7309 54.9359 17.8615C56.6687 22.7507 52.8672 26.7719 51.0853 30.9928C49.2682 35.2877 49.6294 45.0376 56.5805 42.4876C59.2275 41.5154 61.5693 39.7385 63.9195 38.2136C66.137 36.7673 68.6915 34.9299 71.3992 34.6107C73.7569 34.3334 75.833 36.4681 75.4884 38.8678C75.1123 41.4962 72.1611 43.4551 70.1846 44.8697C65.4915 48.2573 57.6266 51.9761 56.9904 58.5274C56.5772 62.7806 59.6361 66.4999 63.4731 67.9787C67.8346 69.6578 73.2375 68.1723 74.5462 63.2995C75.1583 61.04 75.0164 58.6063 75.9253 56.4302C76.7752 54.3965 78.9641 52.4807 81.1689 52.0644C84.6026 51.3927 86.0886 55.3921 86.3129 58.1129C86.6377 61.9794 85.1384 65.5797 82.0732 67.9494C79.7485 69.7321 75.1069 72.1989 75.9734 75.8024C76.9376 79.8419 81.1966 79.1392 84.2755 78.91C86.3395 78.7611 87.837 79.4987 88.1246 81.7337C88.3811 83.6995 87.0653 85.419 85.6979 86.68C83.027 89.1285 79.3441 90.9592 75.822 91.8303C74.828 92.0711 75.1121 93.6537 76.1176 93.4073C79.7833 92.5092 83.5235 90.6792 86.4008 88.2158C89.0985 85.9107 91.2978 81.7573 88.4552 78.6013C85.8163 75.6593 81.6908 79.0131 78.7867 77.1382C74.4389 74.3433 81.9889 70.1517 83.8295 68.604C86.6596 66.2489 88.0115 62.5211 87.9473 58.8978C87.898 55.9214 86.873 52.1674 83.9049 50.8356C80.5209 49.3217 76.3151 52.2168 74.7782 55.1528C73.6695 57.2694 73.663 59.6615 73.2279 61.963C72.6584 64.9554 70.6054 67.0044 67.4419 67.1183C62.7027 67.272 57.6053 63.0209 58.6926 57.9854C59.4029 54.7255 62.4395 52.3555 64.9832 50.4664C67.8447 48.352 70.9716 46.5495 73.6641 44.2042C75.575 42.5371 77.5218 40.2695 77.0283 37.5514C76.5888 35.0915 74.5635 33.0318 72.0032 33.0093C69.2424 32.9845 66.5982 34.6664 64.3468 36.0723C61.7951 37.6808 59.343 39.5823 56.5727 40.7993C54.3036 41.7872 52.6175 41.4824 52.0195 38.872C51.5464 36.8123 51.5226 34.5629 52.2003 32.556C52.9615 30.281 54.3436 28.2876 55.4125 26.1476C57.4738 22.0328 57.7142 16.925 53.9623 13.6559C50.5959 10.7116 45.4764 11.0499 41.6615 12.902C39.7252 13.8421 37.8584 15.1892 36.9173 17.1818C35.9822 19.1573 35.7711 21.4212 35.51 23.5529C35.2807 25.4274 35.2612 28.4088 33.6525 29.7302C31.9683 31.1308 30.1059 30.2576 29.2274 28.5654C27.7723 25.7738 27.5071 20.7977 23.8817 19.8134C19.0403 18.4952 15.9466 24.1209 14.8405 27.8858C13.4176 32.7287 13.7289 38.1516 17.5384 41.862C19.4517 43.7201 21.9005 44.8917 24.3454 45.9088C26.9841 47.0023 29.9481 47.739 32.3109 49.3789C33.4867 50.1873 34.4183 51.2849 34.6927 52.7301C34.811 53.3552 35.0644 55.1092 34.5761 55.6875C34.0529 56.3112 32.979 55.5955 32.3581 55.3139C30.1535 54.3224 27.5461 53.4696 26.2802 56.2598C25.4087 58.1902 25.3833 60.7194 26.4315 62.5851C27.485 64.491 29.5059 65.5148 31.4731 66.2519C33.543 67.0244 35.8123 67.4157 37.6237 68.7119C39.0377 69.7176 40.6629 71.2463 41.0134 73.0243C41.4668 75.2783 38.8142 76.7083 36.8933 76.8588C34.961 77.0149 32.91 76.1052 31.1541 75.422C29.6489 74.8445 24.0156 71.7779 23.4097 74.9302C23.018 76.9689 24.7773 79.7123 25.8866 81.264C27.3337 83.3059 29.3759 84.9308 31.7779 85.7127C35.6519 86.9745 40.2064 85.5311 44.0426 84.7494C48.0739 83.9297 53.1953 82.5098 57.1786 84.2019C59.2072 85.0656 60.8299 87.2639 60.8311 89.4958C60.8382 92.1799 58.5382 94.2776 56.0565 94.8569C51.949 95.813 48.9305 91.5906 45.1068 90.9017C41.4032 90.2256 39.9279 94.6673 40.2863 97.6643C40.645 100.633 43.0266 102.605 45.6601 103.658C52.6143 106.453 62.061 104.995 68.4077 101.288C71.2926 99.6033 73.8776 97.1539 74.7604 93.8387C75.0822 92.8293 73.5763 92.3091 73.3063 93.3076Z" fill="#DCD3D7"/>
</g>
</g>
</svg>
