<svg width="123" height="124" viewBox="0 0 123 124" fill="none" xmlns="http://www.w3.org/2000/svg">
<g id="Patterns">
<g id="Group">
<g id="Group_2">
<path id="Vector" d="M103.795 72.6598C98.6171 70.8775 92.1987 67.7035 92.1407 61.3548C92.1075 57.0466 94.5796 53.0731 95.7669 49.031C98.0496 41.2547 95.1004 32.738 90.1319 26.6632C85.0329 20.4205 77.5591 16.0131 69.5875 14.6874C65.6722 14.0302 61.6246 14.1435 57.7854 15.1653C53.9305 16.1876 50.2442 18.096 46.8359 20.1442C39.2523 24.7187 32.515 30.846 27.0794 37.8311C21.7416 44.6959 17.4239 52.6699 15.8169 61.2928C15.0813 65.2735 14.9145 69.4395 15.6264 73.4446C16.4888 78.2582 18.8566 82.6953 21.9609 86.4285C28.3157 94.0624 37.8054 99.1641 47.4154 101.36C57.0012 103.534 66.8555 101.046 73.8059 93.9811C77.4365 90.2912 79.8597 85.7561 82.2119 81.1998C83.4066 78.8937 84.8233 76.4319 87.4401 75.5821C90.0181 74.7413 92.6715 75.5639 95.0577 76.5906C97.1113 77.4871 99.0624 78.6059 101.116 79.4867C101.48 79.6472 101.829 79.5344 102.053 79.1988C103.045 77.6577 104.229 76.267 104.847 74.5111C105.133 73.673 103.786 73.3639 103.5 74.2021C102.94 75.8154 101.746 77.136 100.836 78.5571C101.154 78.461 101.456 78.3653 101.773 78.2692C97.9448 76.6315 94.1586 73.8507 89.8263 73.8637C84.4386 73.8868 82.2188 78.173 80.06 82.4103C77.7532 86.9182 74.9875 91.253 71.1274 94.6061C67.4423 97.8049 62.8782 99.9056 58.0414 100.537C48.1342 101.838 37.5292 97.5853 29.6667 91.7513C25.6473 88.7667 22.0907 85.0792 19.6771 80.6748C17.4209 76.5548 16.466 72.0335 16.5617 67.3458C16.7301 58.7375 20.2013 50.4542 24.8347 43.3225C29.6922 35.8552 36.0715 29.2857 43.3079 24.1123C49.7872 19.4871 57.2781 15.4474 65.4418 15.6642C73.5743 15.8821 81.4982 19.6807 87.1687 25.4437C92.6701 31.048 96.5159 39.4813 94.724 47.4453C93.8114 51.5177 91.5412 55.1955 90.8891 59.3457C90.1862 63.8728 92.3391 67.9414 96.0408 70.5216C98.2954 72.0921 100.862 73.1209 103.446 74.0004C104.332 74.3007 104.633 72.9459 103.795 72.6598Z" fill="#FDB120"/>
</g>
</g>
<g id="Group_3">
<g id="Group_4">
<path id="Vector_2" d="M99.021 73.1402C96.0857 71.8104 93.0252 70.727 90.2147 69.1351C88.8454 68.3654 87.5499 67.4525 86.4355 66.3306C85.1913 65.0563 84.3601 63.4874 83.5213 61.9265C80.903 56.9812 79.5106 51.4728 76.569 46.6942C71.0738 37.7894 60.773 32.2599 50.4899 31.2973C44.7484 30.7608 38.9435 31.6966 33.7691 34.286C32.9683 34.6869 33.701 35.8601 34.4943 35.4673C43.8502 30.7972 55.2278 31.9987 64.1899 36.9843C68.9576 39.64 73.0877 43.4109 75.8327 48.1567C78.5692 52.8793 79.9336 58.2399 82.547 63.029C84.1566 65.9809 86.0416 68.2358 88.9437 70.0046C91.9093 71.8027 95.2217 72.9406 98.3711 74.3653C99.1803 74.7306 99.8382 73.513 99.021 73.1402Z" fill="#FDB120"/>
</g>
</g>
<g id="Group_5">
<g id="Group_6">
<path id="Vector_3" d="M83.3575 69.1422C67.4513 66.6773 50.488 66.4203 35.8644 58.9562C31.6204 56.7921 27.756 54.0138 24.4427 50.6C23.8284 49.9627 22.8823 50.9704 23.4966 51.6078C35.472 63.9114 53.1552 66.6794 69.4307 68.7024C73.9767 69.2692 78.5287 69.7811 83.0553 70.4814C83.9201 70.6259 84.2298 69.2787 83.3575 69.1422Z" fill="#FDB120"/>
</g>
</g>
<g id="Group_7">
<g id="Group_8">
<path id="Vector_4" d="M75.4326 60.5967C65.5454 48.2969 49.4933 41.9185 34.0642 40.7053C33.1782 40.6319 33.2293 42.0146 34.1073 42.0804C48.9875 43.2485 64.7132 49.4418 74.2504 61.307C74.7961 62.0013 75.9783 61.291 75.4326 60.5967Z" fill="#FDB120"/>
</g>
</g>
<g id="Group_9">
<g id="Group_10">
<path id="Vector_5" d="M61.8748 57.5722C55.4652 56.6816 49.4733 53.8928 44.0925 50.3886C43.35 49.9039 42.7001 51.129 43.4426 51.6137C48.9111 55.1699 55.0456 58.0167 61.565 58.9194C62.4369 59.0402 62.7623 57.6925 61.8748 57.5722Z" fill="#FDB120"/>
</g>
</g>
<g id="Group_11">
<g id="Group_12">
<path id="Vector_6" d="M78.222 74.7729C71.3565 76.8062 64.2918 78.4704 57.0907 78.2776C49.3806 78.0619 42.2761 75.4572 35.4729 71.9827C30.7281 69.5608 25.8981 66.6647 23.0699 62.0076C22.6079 61.2403 21.4262 61.9662 21.8882 62.7335C24.3451 66.7689 28.2417 69.5775 32.294 71.865C36.0673 73.9815 40.0297 75.8964 44.1323 77.2907C51.0732 79.666 58.3627 80.1844 65.6108 79.1322C70.0247 78.4832 74.3464 77.3834 78.6158 76.1133C79.4679 75.8516 79.0745 74.5267 78.222 74.7729Z" fill="#FDB120"/>
</g>
</g>
<g id="Group_13">
<g id="Group_14">
<path id="Vector_7" d="M75.9941 80.2484C71.022 85.8033 64.4904 89.7576 57.1261 91.0951C48.7505 92.6056 40.2517 90.6788 33.4293 85.5938C29.3132 82.5184 25.8077 78.712 22.0766 75.1942C21.432 74.5891 20.4779 75.5893 21.1306 76.202C28.069 82.7458 34.6291 90.1933 44.3985 92.2359C51.9006 93.8034 59.7535 92.8336 66.5891 89.3466C70.5457 87.3279 74.0469 84.5024 77.0093 81.2015C77.5982 80.5258 76.591 79.5803 75.9941 80.2484Z" fill="#FDB120"/>
</g>
</g>
<g id="Group_15">
<g id="Group_16">
<path id="Vector_8" d="M54.1955 84.3843C49.2961 84.517 44.3671 83.4541 40.4763 80.3325C39.7863 79.7757 38.8403 80.7835 39.5303 81.3402C43.7101 84.7029 48.949 85.9202 54.231 85.7675C55.1297 85.7467 55.0862 84.3559 54.1955 84.3843Z" fill="#FDB120"/>
</g>
</g>
<g id="Group_17">
<g id="Group_18">
<path id="Vector_9" d="M66.5991 72.7816C60.6294 72.6982 54.7533 71.6107 48.9622 70.2389C48.0954 70.0319 47.7857 71.3792 48.6524 71.5862C54.5539 72.9857 60.5555 74.0848 66.6346 74.1648C67.5343 74.1752 67.4913 72.8001 66.5991 72.7816Z" fill="#FDB120"/>
</g>
</g>
<g id="Group_19">
<g id="Group_20">
<path id="Vector_10" d="M36.2282 65.7565C33.1655 64.3526 30.1426 62.9708 27.8723 60.3997C27.2807 59.7382 26.3346 60.7459 26.9263 61.4075C29.2776 64.0698 32.428 65.5257 35.594 66.9812C36.3875 67.3469 37.0454 66.1293 36.2282 65.7565Z" fill="#FDB120"/>
</g>
</g>
<g id="Group_21">
<g id="Group_22">
<path id="Vector_11" d="M34.4229 49.9146C31.554 48.7078 28.8326 47.2147 25.9562 46.016C25.14 45.6744 24.4901 46.8995 25.3063 47.2411C28.1752 48.4479 30.8966 49.941 33.773 51.1397C34.5968 51.4732 35.2472 50.2637 34.4229 49.9146Z" fill="#FDB120"/>
</g>
</g>
<g id="Group_23">
<g id="Group_24">
<path id="Vector_12" d="M88.8926 55.6395C87.3121 49.1204 86.1891 42.2269 81.9906 36.7689C77.5721 31.0285 71.0054 26.866 63.9989 25.1419C59.9241 24.1378 55.6939 23.9128 51.5207 24.257C50.6315 24.3323 50.6745 25.7074 51.5637 25.6321C60.9945 24.8544 69.8718 27.3792 77.0661 33.602C80.3296 36.423 82.8068 39.8556 84.3332 43.8972C85.8088 47.8153 86.5725 51.9751 87.5676 56.0336C87.7826 56.9027 89.0995 56.501 88.8926 55.6395Z" fill="#FDB120"/>
</g>
</g>
<g id="Group_25">
<g id="Group_26">
<path id="Vector_13" d="M89.2975 37.2087C87.5002 34.0047 85.7089 30.7458 83.2755 27.961C80.7933 25.1151 77.6646 23.1032 74.0557 21.9904C73.2107 21.728 72.9009 23.0752 73.746 23.3376C77.2445 24.4227 80.1937 26.4481 82.557 29.243C84.7899 31.87 86.4347 34.9459 88.1159 37.9346C88.5547 38.7105 89.7287 37.9927 89.2975 37.2087Z" fill="#FDB120"/>
</g>
</g>
</g>
</svg>
