<svg width="81" height="106" viewBox="0 0 81 106" fill="none" xmlns="http://www.w3.org/2000/svg">
<g id="Patterns">
<g id="Group">
<g id="Group_2">
<path id="Vector" d="M3.57471 45.7751C8.03632 69.2359 23.3346 96.3548 48.1785 102.373C48.8546 102.54 49.475 102.009 49.6452 101.372C51.3919 94.56 49.6244 87.0032 47.9086 80.3468C45.8682 72.3898 43.0972 65.0939 38.4739 58.2472C34.2145 51.9343 29.1596 47.2323 22.4432 43.6075C19.0841 41.7851 15.5678 40.2566 12.0378 38.8096C10.4605 38.1716 8.86311 37.5352 7.26736 36.9188C6.14818 36.4855 4.9205 35.6991 3.70301 35.7961C2.9845 35.8534 2.55166 36.4708 2.56429 37.133C2.55727 40.0679 3.28394 42.8841 3.57471 45.7751C3.74201 47.3697 6.23846 47.1907 6.06957 45.5762C5.7788 42.6852 5.05212 39.869 5.04078 36.9557C4.65508 37.4085 4.26939 37.8613 3.90206 38.2926C4.72037 38.2273 6.61858 39.3623 7.51025 39.7132C9.00302 40.2977 10.4974 40.902 11.9718 41.508C15.1497 42.8223 18.314 44.2181 21.3378 45.8663C27.8036 49.3704 32.5663 53.9349 36.6485 60.0408C40.9126 66.4137 43.4395 73.1663 45.3722 80.5289C47.0673 86.9257 48.862 94.3195 47.1777 100.905C47.6727 100.564 48.1494 100.245 48.6444 99.9041C36.6827 96.9989 27.1253 88.4755 20.1547 78.6405C13.2073 68.8438 8.31593 57.3757 6.06797 45.5563C5.76414 44.0128 3.26769 44.1918 3.57471 45.7751Z" fill="#FFC1AC"/>
</g>
</g>
<g id="Group_3">
<g id="Group_4">
<path id="Vector_2" d="M4.83606 40.1874C13.8816 49.5958 21.8029 60.0183 29.0159 70.8791C32.1204 75.5557 35.4318 80.055 38.6696 84.6405C42.0448 89.4362 45.3807 94.4963 46.8053 100.272C47.1906 101.829 49.5531 100.977 49.1678 99.4199C47.7807 93.8628 44.6722 88.885 41.4495 84.238C38.0218 79.2857 34.4255 74.4876 31.0927 69.4675C23.744 58.4164 15.6735 47.8852 6.47387 38.3083C5.33569 37.1328 3.72102 39.0503 4.83606 40.1874Z" fill="#FFC1AC"/>
</g>
</g>
<g id="Group_5">
<g id="Group_6">
<path id="Vector_3" d="M42.7653 94.684C32.7921 85.229 22.4365 75.7643 15.7019 63.5991C14.927 62.1937 12.8718 63.6238 13.6467 65.0292C20.4754 77.3677 31.005 86.9994 41.1291 96.5831C42.3024 97.6954 43.9187 95.7979 42.7653 94.684Z" fill="#FFC1AC"/>
</g>
</g>
<g id="Group_7">
<g id="Group_8">
<path id="Vector_4" d="M39.531 72.7546C35.7795 65.758 30.5372 59.9656 25.1385 54.2258C24.0403 53.0472 22.4256 54.9647 23.5223 56.1234C28.7901 61.7329 33.84 67.3798 37.4957 74.1831C38.2322 75.6116 40.2859 74.1616 39.531 72.7546Z" fill="#FFC1AC"/>
</g>
</g>
<g id="Group_9">
<g id="Group_10">
<path id="Vector_5" d="M16.6399 58.4991C15.0359 55.5118 13.7784 52.336 11.9045 49.4908C11.5374 48.9171 10.7047 48.8026 10.153 49.1882C9.58129 49.5755 9.46376 50.3687 9.85083 50.9408C11.7247 53.786 12.9822 56.9618 14.5862 59.9492C14.915 60.546 15.8243 60.6142 16.3377 60.2517C16.9262 59.8229 16.9487 59.0975 16.6399 58.4991Z" fill="#FFC1AC"/>
</g>
</g>
<g id="Group_11">
<g id="Group_12">
<g id="Group_13">
<path id="Vector_6" d="M9.83411 14.7258C24.4444 33.7195 50.275 50.8539 75.2005 45.0479C75.911 44.8908 76.0837 44.0329 75.956 43.4401C74.416 36.4682 69.2728 30.4066 64.6803 25.2055C59.6025 19.4603 54.2874 14.5178 47.6117 10.6485C40.9145 6.76084 34.2528 4.5787 26.4938 4.25271C22.5037 4.08849 18.504 4.3069 14.5122 4.62517C12.7358 4.76679 10.9411 4.92999 9.1664 5.09159C7.91058 5.21182 6.45284 5.06677 5.36136 5.73664C4.93978 5.99134 4.65621 6.71739 4.89561 7.20076C6.23783 9.92761 8.20525 12.1826 9.83411 14.7258C10.7056 16.0833 12.7608 14.6532 11.8893 13.2957C10.3962 10.9426 8.50136 8.84271 7.23813 6.35074C7.07675 6.84596 6.93375 7.31964 6.77237 7.81487C7.46223 7.3981 9.86441 7.54823 10.8424 7.47026C12.5173 7.31661 14.1923 7.16297 15.8704 7.04926C19.4646 6.78279 23.0668 6.61619 26.6744 6.77071C34.091 7.0838 40.4812 9.38807 46.8447 13.1214C53.1883 16.8564 58.2328 21.6798 63.0504 27.1845C67.3596 32.1067 72.13 37.7759 73.5752 44.3133C73.8332 43.7701 74.0728 43.2486 74.3308 42.7054C62.3407 45.4904 49.9615 42.1361 39.3081 36.4938C28.6962 30.8682 19.1969 22.8225 11.8909 13.3157C10.9045 12.0276 8.84923 13.4577 9.83411 14.7258Z" fill="#FFC1AC"/>
</g>
</g>
<g id="Group_14">
<g id="Group_15">
<path id="Vector_7" d="M8.15578 9.03311C20.8436 13.4882 32.9229 19.3787 44.582 26.0463C49.381 28.799 54.3358 31.2378 59.2035 33.8444C64.0927 36.4693 69.1041 39.3658 72.7572 43.6168C73.7972 44.8202 75.854 43.4101 74.8124 42.1868C67.6387 33.835 56.573 30.0746 47.2671 24.7067C35.1171 17.6763 22.507 11.4262 9.24121 6.77594C7.73326 6.25302 6.64783 8.51019 8.15578 9.03311Z" fill="#FFC1AC"/>
</g>
</g>
<g id="Group_16">
<g id="Group_17">
<path id="Vector_8" d="M66.7577 40.6391C53.7121 36.735 40.2585 33.0042 28.8758 25.2695C27.5588 24.3696 25.9226 26.2687 27.2596 27.167C39.0254 35.1726 52.7927 39.0594 66.2918 43.1081C67.8349 43.568 68.2809 41.1005 66.7577 40.6391Z" fill="#FFC1AC"/>
</g>
</g>
<g id="Group_18">
<g id="Group_19">
<path id="Vector_9" d="M54.2559 22.6803C47.7456 18.1145 40.5093 15.2747 33.0829 12.5707C31.5734 12.0278 30.4879 14.285 31.9975 14.8279C39.1963 17.4495 46.3018 20.159 52.6396 24.5778C53.9583 25.4977 55.5746 23.6002 54.2559 22.6803Z" fill="#FFC1AC"/>
</g>
</g>
<g id="Group_20">
<g id="Group_21">
<path id="Vector_10" d="M27.4081 20.2768C24.5369 18.2748 21.9013 15.9525 18.8496 14.2061C18.282 13.8896 17.4429 14.1977 17.1682 14.7823C16.8798 15.4485 17.1535 16.11 17.7442 16.4649C18.5009 16.8869 19.0517 17.2449 19.7102 17.6949C20.4119 18.1816 21.0951 18.6899 21.7784 19.1982C23.1034 20.1979 24.3901 21.2208 25.7519 22.1775C26.2843 22.5571 27.0723 22.6149 27.5083 22.0374C27.9323 21.5615 27.9836 20.6932 27.4081 20.2768Z" fill="#FFC1AC"/>
</g>
</g>
</g>
</g>
</svg>
