<svg width="133" height="133" viewBox="0 0 133 133" fill="none" xmlns="http://www.w3.org/2000/svg">
<g id="Patterns">
<g id="Group">
<g id="Group_2">
<path id="Vector" d="M112.965 88.8194C116.437 78.0207 116.123 64.7067 112.269 54.0592C109.609 46.7303 103.524 37.1836 94.3001 39.228C86.2223 41.03 82.8604 50.7337 82.9875 58.0816C83.1429 66.3346 85.5169 75.0729 89.7958 82.1648C91.9027 85.6603 94.749 89.0911 98.5326 90.8857C102.504 92.7772 106.694 92.3966 110.611 90.5625C112.742 89.5679 110.812 86.4785 108.701 87.4519C94.6554 93.9953 87.7945 70.861 86.8122 61.1928C86.1851 54.973 87.0847 46.8717 93.2595 43.4829C100.284 39.6139 106.287 48.4837 108.353 53.9781C112.308 64.5194 112.872 77.2694 109.42 88.0468C108.706 90.2525 112.253 91.0662 112.965 88.8194Z" fill="#7EB693"/>
</g>
</g>
<g id="Group_3">
<g id="Group_4">
<path id="Vector_2" d="M110.189 88.0858C105.737 80.7523 103.68 72.2716 101.385 64.0868C100.758 61.8209 97.2495 62.88 97.8964 65.1247C100.283 73.5949 102.493 82.3796 107.097 89.976C108.292 91.9767 111.425 90.0852 110.189 88.0858Z" fill="#7EB693"/>
</g>
</g>
<g id="Group_5">
<g id="Group_6">
<path id="Vector_3" d="M85.4678 97.7476C79.8641 93.7252 74.1422 89.8712 68.1836 86.3543C61.3854 82.3288 53.7926 77.9167 45.8676 76.7071C43.0742 76.2813 39.9645 76.2775 37.5672 77.9808C34.9283 79.8565 34.2084 83.1744 34.2838 86.2404C34.3934 91.0558 35.7874 96.1186 38.7488 99.937C42.1397 104.318 46.9892 107.273 52.1331 109.107C63.1493 113.019 78.5112 112.344 85.3581 101.479C86.6142 99.5027 83.3694 97.8145 82.1333 99.7691C76.7977 108.259 64.5814 108.772 55.881 106.475C51.0843 105.207 46.3988 102.885 42.9501 99.2882C39.8422 96.0511 38.3916 91.8139 37.9856 87.3993C37.8583 85.9618 37.8106 84.4394 38.2406 83.0459C38.5016 82.1727 39.0332 81.3938 39.5366 81.0276C41.1264 79.8443 43.5193 79.974 45.6942 80.3783C52.7565 81.6565 59.4248 85.4803 65.5492 89.0331C69.1572 91.1422 72.6868 93.3773 76.1567 95.6762C77.5029 96.5806 78.8492 97.485 80.1968 98.4305C80.7658 98.8448 81.3335 99.218 81.9024 99.6323C82.4078 99.9869 82.7871 100.263 82.9768 100.401C84.8721 101.741 87.3844 99.1075 85.4678 97.7476Z" fill="#7EB693"/>
</g>
</g>
<g id="Group_7">
<g id="Group_8">
<path id="Vector_4" d="M82.6581 99.4237C74.8115 98.0881 67.3698 95.2157 59.8028 92.9445C57.5578 92.2747 56.7422 95.8222 58.9872 96.492C66.5542 98.7632 73.9959 101.636 81.8425 102.971C84.1408 103.372 84.9764 99.8029 82.6581 99.4237Z" fill="#7EB693"/>
</g>
</g>
<g id="Group_9">
<g id="Group_10">
<path id="Vector_5" d="M70.972 60.8938C69.4825 51.4683 67.5719 41.0883 61.4023 33.4594C57.6321 28.8019 52.0277 24.0999 45.9793 22.9747C43.3904 22.5012 40.6825 22.8346 38.6806 24.6695C36.3785 26.7816 35.7808 30.0545 35.6267 33.0248C35.2517 40.7799 40.1663 47.7898 45.7759 52.6564C51.9145 57.9798 59.9336 62.193 68.1684 62.7748C70.5002 62.927 70.3657 59.2863 68.0551 59.154C62.0498 58.7482 56.0881 55.7874 51.2443 52.3585C46 48.6335 41.1009 43.4354 39.6019 36.9962C38.6515 32.949 39.0831 25.6863 44.812 26.4716C49.8163 27.1358 54.5136 31.146 57.7777 34.7694C64.0303 41.7572 65.9171 52.035 67.33 60.9893C67.6902 63.2843 71.3321 63.1888 70.972 60.8938Z" fill="#7EB693"/>
</g>
</g>
<g id="Group_11">
<g id="Group_12">
<path id="Vector_6" d="M68.7793 58.122C63.8146 53.4614 59.3906 48.3099 54.4259 43.6493C52.7285 42.0559 50.2163 44.6896 51.9348 46.3029C56.8995 50.9635 61.3235 56.115 66.2882 60.7756C68.0068 62.3889 70.4978 59.7353 68.7793 58.122Z" fill="#7EB693"/>
</g>
</g>
</g>
</svg>
