<svg width="15" height="14" viewBox="0 0 15 14" fill="none" xmlns="http://www.w3.org/2000/svg">
<path d="M6.67834 1.09358C6.98595 0.189898 8.26405 0.189899 8.57166 1.09359L9.55524 3.98314C9.69319 4.38841 10.0738 4.66091 10.5019 4.66091H13.5822C14.5622 4.66091 14.9574 5.92418 14.1521 6.48263L11.7413 8.15456C11.3744 8.40901 11.2207 8.87585 11.3646 9.29852L12.3041 12.0586C12.6149 12.9718 11.5802 13.7523 10.7875 13.2026L8.19488 11.4045C7.85214 11.1668 7.39786 11.1668 7.05512 11.4045L4.46247 13.2026C3.6698 13.7523 2.63509 12.9718 2.94593 12.0586L3.88544 9.29852C4.02932 8.87585 3.87556 8.40901 3.50867 8.15456L1.09787 6.48263C0.292621 5.92418 0.687803 4.66091 1.66775 4.66091H4.7481C5.1762 4.66091 5.55681 4.38841 5.69476 3.98314L6.67834 1.09358Z" fill="#FFA858"/>
</svg>
