<svg width="150" height="138" viewBox="0 0 150 138" fill="none" xmlns="http://www.w3.org/2000/svg">
<g id="Group">
<g id="Group_2">
<g id="Group_3">
<path id="Vector" d="M42.3709 100.265C68.8524 111.94 106.434 115.314 129.519 94.6568C130.151 94.0969 130.046 93.1121 129.528 92.5046C123.93 86.0787 115.173 82.648 107.351 79.7846C98.0066 76.3511 88.8203 74.1013 78.809 74.0089C69.5805 73.9202 61.413 75.7328 53.1782 79.9441C49.0503 82.0438 45.1076 84.5024 41.2369 87.0307C39.5159 88.1664 37.7827 89.3231 36.0705 90.492C34.8687 91.3111 33.2399 91.9957 32.4998 93.2775C32.0631 94.034 32.3817 94.8904 33.0513 95.333C35.9756 97.3576 39.2857 98.5682 42.3709 100.265C44.0773 101.195 45.6148 98.58 43.8874 97.6387C40.8022 95.9415 37.4921 94.7309 34.5767 92.7395C34.7635 93.4357 34.9502 94.1319 35.1281 94.795C35.6256 93.9334 38.0631 92.8192 39.0264 92.1705C40.6358 91.0824 42.2663 90.0065 43.8846 88.9516C47.3809 86.6835 50.9491 84.4849 54.6726 82.6001C62.6146 78.5559 70.4441 76.9404 79.3442 77.0637C88.6357 77.1888 97.112 79.3088 105.789 82.4412C113.338 85.1468 121.951 88.4383 127.366 94.6466C127.366 93.9182 127.375 93.2229 127.375 92.4945C116.253 102.435 101.176 106.115 86.5688 106.311C72.0156 106.51 57.2078 103.508 43.8664 97.6266C42.1171 96.8688 40.5796 99.4834 42.3709 100.265Z" fill="#DDAB84"/>
</g>
</g>
<g id="Group_4">
<g id="Group_5">
<path id="Vector_2" d="M37.662 95.165C53.2699 92.6049 69.1171 91.864 84.915 92.1313C91.7164 92.2477 98.4831 92.0358 105.285 91.9566C112.392 91.8848 119.735 92.0338 126.478 94.5821C128.297 95.268 129.071 92.3247 127.252 91.6389C120.753 89.2031 113.648 88.8836 106.795 88.9054C99.4958 88.9221 92.235 89.2129 84.9337 89.0882C68.8528 88.8256 52.7946 89.6407 36.9125 92.2387C34.9569 92.5666 35.7607 95.4962 37.662 95.165Z" fill="#DDAB84"/>
</g>
</g>
<g id="Group_6">
<g id="Group_7">
<path id="Vector_3" d="M118.123 94.7747C101.831 98.2286 85.2662 102.057 68.4955 100.416C66.5602 100.223 66.5746 103.258 68.5099 103.45C85.5183 105.117 102.369 101.229 118.894 97.7132C120.81 97.3068 120.028 94.3894 118.123 94.7747Z" fill="#DDAB84"/>
</g>
</g>
<g id="Group_8">
<g id="Group_9">
<path id="Vector_4" d="M94.0133 82.9274C84.4517 81.8618 75.0671 83.1118 65.6275 84.5542C63.6962 84.8401 64.4999 87.7697 66.4102 87.4717C75.6298 86.0704 84.7371 84.9124 94.0399 85.9406C95.972 86.1875 95.9365 83.1411 94.0133 82.9274Z" fill="#DDAB84"/>
</g>
</g>
<g id="Group_10">
<g id="Group_11">
<path id="Vector_5" d="M64.0524 95.973C59.9683 95.5203 55.9344 94.5922 51.8066 94.5065C50.9817 94.4785 50.2951 95.2308 50.3007 96.0466C50.2942 96.8833 51.005 97.5459 51.8421 97.5529C55.9698 97.6386 60.0038 98.5667 64.0879 99.0194C64.9095 99.1016 65.6027 98.2409 65.5938 97.4793C65.5704 96.5973 64.862 96.0762 64.0524 95.973Z" fill="#DDAB84"/>
</g>
</g>
<g id="Group_12">
<g id="Group_13">
<g id="Group_14">
<path id="Vector_6" d="M15.6888 72.6721C44.6885 71.1475 79.5457 57.1466 90.8856 28.2792C91.2172 27.462 90.4796 26.7 89.8003 26.4198C81.7835 23.1642 72.1983 24.1303 63.8505 25.1384C54.626 26.2567 46.0396 28.1637 37.5889 32.1663C29.1051 36.1779 22.3478 41.3263 16.6887 48.8459C13.7819 52.7152 11.2504 56.8572 8.82397 61.0598C7.74422 62.93 6.67338 64.8334 5.61465 66.7157C4.87135 68.0517 3.72449 69.4068 3.64274 70.9566C3.60712 71.5525 4.1368 72.3346 4.78379 72.4279C8.42792 72.9629 12.0309 72.5495 15.6888 72.6721C17.6427 72.7355 17.6283 69.7012 15.6744 69.6378C12.2995 69.5105 8.90118 69.958 5.54576 69.5057C5.92907 70.0072 6.30351 70.4755 6.68682 70.977C6.7451 70.002 8.54626 67.7078 9.14073 66.6782C10.1388 64.9009 11.1369 63.1236 12.177 61.3707C14.3818 57.6004 16.6917 53.8908 19.3259 50.3965C24.7367 43.2099 31.4293 38.4163 39.5297 34.6317C47.6181 30.8682 55.8996 29.1494 64.7052 28.1254C72.5799 27.2084 81.5173 26.3446 89.0351 29.3962C88.6704 28.7654 88.3146 28.1677 87.9499 27.5369C82.487 41.4177 70.6296 51.4666 57.675 58.2202C44.7656 64.944 30.2058 68.8937 15.6954 69.65C13.7318 69.7491 13.7462 72.7833 15.6888 72.6721Z" fill="#DDAB84"/>
</g>
</g>
<g id="Group_15">
<g id="Group_16">
<path id="Vector_7" d="M8.85216 70.4335C22.0205 60.8333 36.2029 52.8272 50.872 45.7746C56.9183 42.8774 62.7583 39.6089 68.7059 36.5426C74.6867 33.4674 81.0225 30.4572 87.7762 29.7335C89.6921 29.5229 89.6988 26.5008 87.7618 26.6993C74.4953 28.1176 63.1353 36.5765 51.3809 42.1739C36.0121 49.467 21.1059 57.7557 7.34561 67.7986C5.78712 68.9441 7.29367 71.579 8.85216 70.4335Z" fill="#DDAB84"/>
</g>
</g>
<g id="Group_17">
<g id="Group_18">
<path id="Vector_8" d="M80.6782 33.6763C67.8139 44.0124 54.8421 54.8748 39.2979 60.9179C37.4944 61.6137 38.2649 64.5522 40.0806 63.8353C56.1585 57.5961 69.5016 46.5278 82.822 35.8387C84.3417 34.6147 82.1857 32.4734 80.6782 33.6763Z" fill="#DDAB84"/>
</g>
</g>
<g id="Group_19">
<g id="Group_20">
<path id="Vector_9" d="M54.1632 33.8071C45.1311 37.1658 37.3225 42.4357 29.5187 47.9886C27.9392 49.122 29.4458 51.7569 31.0253 50.6235C38.5904 45.2411 46.1791 40.0123 54.9459 36.7245C56.7705 36.0408 55.9877 33.1234 54.1632 33.8071Z" fill="#DDAB84"/>
</g>
</g>
<g id="Group_21">
<g id="Group_22">
<path id="Vector_10" d="M33.3116 58.9482C29.3399 60.4375 25.2104 61.4715 21.3696 63.3166C20.6636 63.6655 20.3942 64.7147 20.7889 65.3909C21.2555 66.1366 22.1038 66.3182 22.8641 65.9726C23.8054 65.5075 24.5414 65.2039 25.4432 64.856C26.4112 64.4903 27.3882 64.1578 28.3652 63.8253C30.2738 63.1901 32.1792 62.6091 34.0701 61.9077C34.8149 61.6373 35.4142 60.8906 35.1377 60.0585C34.9542 59.3081 34.1228 58.6601 33.3116 58.9482Z" fill="#DDAB84"/>
</g>
</g>
</g>
</g>
</svg>
